<?xml version="1.0" encoding="utf-8"?>
<svg viewBox="0 0.004 2000 499.992" width="2000" height="499.992" xmlns="http://www.w3.org/2000/svg">
  <path d="M 345.029 22.363 C 301.212 12.75 257.566 16.182 218.119 30.039 L 405.327 159.571 L 384.415 34.695 C 371.879 29.518 358.733 25.369 345.029 22.363 Z M 400.55 42.101 L 438.389 264.316 L 511.034 162.153 C 490.149 110.879 451.285 67.764 400.55 42.101 Z M 203.014 35.942 C 151.294 58.251 108.195 98.978 83.709 151.767 L 309.987 109.729 L 203.014 35.942 Z M 516.089 175.821 L 387.941 361.501 L 510.908 338.02 C 515.847 325.881 519.819 313.171 522.723 299.944 L 523.78 294.857 C 531.851 253.703 528.562 212.931 516.089 175.821 Z M 203.558 144.224 L 77.539 166.372 C 73.402 177.168 69.997 188.421 67.445 200.059 C 57.762 244.199 61.334 288.172 75.451 327.852 L 203.558 144.224 Z M 151.264 241.846 L 81.875 344.028 C 103.949 393.949 143.264 435.64 194.004 460.026 L 151.264 241.846 Z M 504.729 351.868 L 284.219 394.646 L 385.609 464.737 C 436.826 443.088 479.718 403.412 504.729 351.868 Z M 186.773 345.271 L 208.108 466.229 C 219.933 470.973 232.284 474.818 245.14 477.636 C 288.707 487.196 332.117 483.855 371.389 470.189 L 186.773 345.271 Z" style="fill: rgb(246, 246, 246); vector-effect: non-scaling-stroke; stroke-linecap: round; stroke-miterlimit: 50; stroke: rgb(0, 0, 0); stroke-opacity: 0.03; stroke-width: 8px;"/>
  <path d="M 731.074 141.852 Q 760.358 141.852 783.726 150.726 Q 807.095 159.6 820.849 176.904 Q 834.604 194.209 834.604 219.056 L 772.19 219.056 Q 772.19 206.336 760.95 198.498 Q 749.709 190.659 733.736 190.659 Q 710.664 190.659 698.832 202.935 Q 687 215.21 687 237.691 L 687 256.622 Q 687 279.103 698.832 291.379 Q 710.664 303.655 733.736 303.655 Q 749.709 303.655 760.95 296.112 Q 772.19 288.569 772.19 276.737 L 726.045 276.737 L 726.045 235.325 L 834.604 235.325 L 834.604 348.912 L 800.883 348.912 L 794.375 328.798 Q 766.57 352.462 721.608 352.462 Q 671.027 352.462 645.588 325.987 Q 620.149 299.513 620.149 247.157 Q 620.149 195.392 648.99 168.622 Q 677.83 141.852 731.074 141.852 Z" style="fill: rgb(246, 246, 246); stroke: rgb(0, 0, 0); stroke-linecap: round; stroke-miterlimit: 50; stroke-opacity: 0.03; stroke-width: 8px; vector-effect: non-scaling-stroke;"/>
  <path d="M 875.122 145.402 L 940.493 145.402 L 940.493 296.851 L 1044.911 296.851 L 1044.911 348.912 L 875.122 348.912 Z" style="fill: rgb(246, 246, 246); stroke: rgb(0, 0, 0); stroke-linecap: round; stroke-miterlimit: 50; stroke-opacity: 0.03; stroke-width: 8px; vector-effect: non-scaling-stroke;"/>
  <path d="M 1145.468 189.18 Q 1181.26 189.18 1203.741 201.16 Q 1226.222 213.14 1226.222 240.058 L 1226.222 300.992 Q 1226.222 306.021 1228.588 309.275 Q 1230.955 312.529 1235.687 312.529 L 1246.336 312.529 L 1246.336 346.546 Q 1245.449 347.137 1241.751 348.468 Q 1238.054 349.799 1231.25 351.13 Q 1224.447 352.462 1215.573 352.462 Q 1198.417 352.462 1187.324 347.285 Q 1176.232 342.109 1172.09 332.939 Q 1160.85 341.813 1146.947 347.137 Q 1133.045 352.462 1114.409 352.462 Q 1059.391 352.462 1059.391 308.683 Q 1059.391 285.907 1071.666 273.927 Q 1083.942 261.947 1107.014 257.51 Q 1130.087 253.073 1167.358 253.073 L 1167.358 245.382 Q 1167.358 236.212 1160.998 231.479 Q 1154.638 226.747 1144.581 226.747 Q 1135.411 226.747 1128.756 230 Q 1122.1 233.254 1122.1 240.353 L 1122.1 241.537 L 1064.123 241.537 Q 1063.828 240.058 1063.828 237.395 Q 1063.828 215.21 1084.977 202.195 Q 1106.127 189.18 1145.468 189.18 Z M 1167.358 280.878 Q 1142.215 280.878 1130.235 286.35 Q 1118.255 291.823 1118.255 300.992 Q 1118.255 315.782 1138.369 315.782 Q 1149.905 315.782 1158.632 309.571 Q 1167.358 303.359 1167.358 294.189 L 1167.358 280.878 Z" style="fill: rgb(246, 246, 246); stroke: rgb(0, 0, 0); stroke-linecap: round; stroke-miterlimit: 50; stroke-opacity: 0.03; stroke-width: 8px; vector-effect: non-scaling-stroke;"/>
  <path d="M 1357.854 145.402 Q 1464.638 145.402 1464.638 247.157 Q 1464.638 348.912 1357.854 348.912 L 1269.706 348.912 L 1269.706 145.402 L 1357.854 145.402 Z M 1335.078 300.105 L 1356.671 300.105 Q 1397.787 300.105 1397.787 256.031 L 1397.787 238.283 Q 1397.787 194.209 1356.671 194.209 L 1335.078 194.209 Z" style="fill: rgb(246, 246, 246); stroke: rgb(0, 0, 0); stroke-linecap: round; stroke-miterlimit: 50; stroke-opacity: 0.03; stroke-width: 8px; vector-effect: non-scaling-stroke;"/>
  <path d="M 1600.998 141.852 Q 1653.65 141.852 1682.343 168.77 Q 1711.035 195.688 1711.035 247.157 Q 1711.035 298.626 1682.343 325.544 Q 1653.65 352.462 1600.998 352.462 Q 1548.345 352.462 1519.801 325.692 Q 1491.256 298.922 1491.256 247.157 Q 1491.256 195.392 1519.801 168.622 Q 1548.345 141.852 1600.998 141.852 Z M 1600.998 190.659 Q 1579.996 190.659 1569.051 203.378 Q 1558.107 216.098 1558.107 237.691 L 1558.107 256.622 Q 1558.107 278.216 1569.051 290.935 Q 1579.996 303.655 1600.998 303.655 Q 1622 303.655 1633.092 290.935 Q 1644.185 278.216 1644.185 256.622 L 1644.185 237.691 Q 1644.185 216.098 1633.092 203.378 Q 1622 190.659 1600.998 190.659 Z" style="fill: rgb(246, 246, 246); stroke: rgb(0, 0, 0); stroke-linecap: round; stroke-miterlimit: 50; stroke-opacity: 0.03; stroke-width: 8px; vector-effect: non-scaling-stroke;"/>
  <path d="M 1831.715 141.852 Q 1870.76 141.852 1895.903 157.677 Q 1921.046 173.503 1921.638 204.562 L 1921.638 208.111 L 1860.407 208.111 L 1860.407 206.928 Q 1860.407 198.054 1853.9 192.138 Q 1847.392 186.222 1834.081 186.222 Q 1821.066 186.222 1814.115 190.067 Q 1807.163 193.913 1807.163 199.533 Q 1807.163 207.52 1816.629 211.365 Q 1826.095 215.21 1847.096 219.352 Q 1871.648 224.38 1887.473 229.852 Q 1903.298 235.325 1915.13 247.748 Q 1926.962 260.172 1927.258 281.47 Q 1927.258 317.557 1902.855 335.009 Q 1878.451 352.462 1837.631 352.462 Q 1790.007 352.462 1763.533 336.488 Q 1737.059 320.515 1737.059 279.991 L 1798.881 279.991 Q 1798.881 295.372 1806.868 300.549 Q 1814.854 305.725 1831.715 305.725 Q 1844.138 305.725 1852.273 303.063 Q 1860.407 300.401 1860.407 292.118 Q 1860.407 284.723 1851.386 281.026 Q 1842.364 277.328 1821.953 273.187 Q 1797.106 267.863 1780.837 262.095 Q 1764.568 256.327 1752.44 243.016 Q 1740.313 229.705 1740.313 206.928 Q 1740.313 173.503 1766.195 157.677 Q 1792.078 141.852 1831.715 141.852 Z" style="fill: rgb(246, 246, 246); stroke: rgb(0, 0, 0); stroke-linecap: round; stroke-miterlimit: 50; stroke-opacity: 0.03; stroke-width: 8px; vector-effect: non-scaling-stroke;"/>
</svg>