<?xml version="1.0" encoding="utf-8"?>
<svg viewBox="0 0.004 1500 300" width="1500" height="300" xmlns="http://www.w3.org/2000/svg">
  <g transform="matrix(1.103282, 0, 0, 1.103282, -353.281372, -125.81662)" style="">
    <title>Logo/Text</title>
    <path d="M 1351.725 138.634 C 1330.289 133.93 1308.937 135.61 1289.638 142.389 L 1381.227 205.759 L 1370.996 144.667 C 1364.861 142.134 1358.43 140.104 1351.725 138.634 Z M 1378.888 148.29 L 1397.4 257.004 L 1432.941 207.022 C 1422.723 181.938 1403.711 160.845 1378.888 148.29 Z M 1282.248 145.276 C 1256.946 156.191 1235.859 176.115 1223.881 201.942 L 1334.583 181.375 L 1282.248 145.276 Z M 1435.414 213.709 L 1372.719 304.549 L 1432.88 293.062 C 1435.296 287.123 1437.239 280.906 1438.659 274.435 L 1439.176 271.946 C 1443.126 251.812 1441.516 231.865 1435.414 213.709 Z M 1282.514 198.252 L 1220.862 209.087 C 1218.839 214.368 1217.173 219.874 1215.923 225.567 C 1211.188 247.162 1212.934 268.675 1219.84 288.089 L 1282.514 198.252 Z M 1256.932 246.011 L 1222.985 296.003 C 1233.782 320.424 1253.018 340.821 1277.84 352.751 L 1256.932 246.011 Z M 1429.856 299.837 L 1321.976 320.765 L 1371.58 355.057 C 1396.636 344.465 1417.621 325.054 1429.856 299.837 Z M 1274.303 296.61 L 1284.74 355.786 C 1290.526 358.107 1296.568 359.988 1302.857 361.366 C 1324.172 366.044 1345.409 364.409 1364.622 357.724 L 1274.303 296.61 Z" style="fill: rgb(246, 246, 246); vector-effect: non-scaling-stroke; stroke-linecap: round; stroke-miterlimit: 50; stroke: rgb(0, 0, 0); stroke-opacity: 0.03; stroke-width: 8px;"/>
    <path d="M 457.37 141.852 C 476.893 141.852 494.444 144.81 510.022 150.726 C 525.602 156.642 537.976 165.368 547.145 176.904 C 556.315 188.441 560.9 202.491 560.9 219.056 L 498.486 219.056 C 498.486 210.576 494.74 203.723 487.246 198.498 C 479.752 193.272 470.681 190.659 460.032 190.659 C 444.651 190.659 433.016 194.751 425.128 202.935 C 417.24 211.118 413.296 222.704 413.296 237.691 L 413.296 256.622 C 413.296 271.609 417.24 283.195 425.128 291.379 C 433.016 299.563 444.651 303.655 460.032 303.655 C 470.681 303.655 479.752 301.141 487.246 296.112 C 494.74 291.083 498.486 284.625 498.486 276.737 L 452.341 276.737 L 452.341 235.325 L 560.9 235.325 L 560.9 348.912 L 527.179 348.912 L 520.671 328.798 C 502.135 344.574 477.879 352.462 447.904 352.462 C 414.184 352.462 388.844 343.637 371.884 325.987 C 354.925 308.338 346.445 282.061 346.445 247.157 C 346.445 212.647 356.059 186.469 375.286 168.622 C 394.513 150.775 421.874 141.852 457.37 141.852 Z" style="fill: rgb(246, 246, 246); stroke: rgb(0, 0, 0); stroke-linecap: round; stroke-miterlimit: 50; stroke-opacity: 0.03; stroke-width: 8px; vector-effect: non-scaling-stroke;"/>
    <path d="M 601.418 145.402 L 666.789 145.402 L 666.789 296.851 L 771.207 296.851 L 771.207 348.912 L 601.418 348.912 L 601.418 145.402 Z" style="fill: rgb(246, 246, 246); stroke: rgb(0, 0, 0); stroke-linecap: round; stroke-miterlimit: 50; stroke-opacity: 0.03; stroke-width: 8px; vector-effect: non-scaling-stroke;"/>
    <path d="M 871.764 189.18 C 895.626 189.18 915.05 193.173 930.037 201.16 C 945.025 209.147 952.518 222.113 952.518 240.058 L 952.518 300.992 C 952.518 304.345 953.307 307.106 954.884 309.275 C 956.462 311.444 958.829 312.529 961.983 312.529 L 972.632 312.529 L 972.632 346.546 C 972.041 346.94 970.513 347.581 968.047 348.468 C 965.583 349.355 962.082 350.243 957.546 351.13 C 953.011 352.018 947.785 352.462 941.869 352.462 C 930.432 352.462 921.016 350.736 913.62 347.285 C 906.226 343.834 901.148 339.052 898.386 332.939 C 890.893 338.855 882.512 343.588 873.243 347.137 C 863.975 350.687 853.129 352.462 840.705 352.462 C 804.027 352.462 785.687 337.869 785.687 308.683 C 785.687 293.499 789.779 281.914 797.962 273.927 C 806.146 265.94 817.929 260.468 833.31 257.51 C 848.692 254.552 868.807 253.073 893.654 253.073 L 893.654 245.382 C 893.654 239.269 891.534 234.634 887.294 231.479 C 883.054 228.324 877.582 226.747 870.877 226.747 C 864.764 226.747 859.489 227.831 855.052 230 C 850.615 232.169 848.396 235.62 848.396 240.353 L 848.396 241.537 L 790.419 241.537 C 790.223 240.551 790.124 239.17 790.124 237.395 C 790.124 222.605 797.174 210.872 811.273 202.195 C 825.373 193.518 845.537 189.18 871.764 189.18 Z M 893.654 280.878 C 876.892 280.878 864.518 282.702 856.531 286.35 C 848.545 289.999 844.551 294.879 844.551 300.992 C 844.551 310.852 851.256 315.782 864.665 315.782 C 872.356 315.782 879.11 313.712 884.928 309.571 C 890.746 305.43 893.654 300.302 893.654 294.189 L 893.654 280.878 Z" style="fill: rgb(246, 246, 246); stroke: rgb(0, 0, 0); stroke-linecap: round; stroke-miterlimit: 50; stroke-opacity: 0.03; stroke-width: 8px; vector-effect: non-scaling-stroke;"/>
    <path d="M 1084.15 145.402 C 1155.34 145.402 1190.934 179.32 1190.934 247.157 C 1190.934 314.994 1155.34 348.912 1084.15 348.912 L 996.002 348.912 L 996.002 145.402 L 1084.15 145.402 Z M 1061.374 300.105 L 1082.967 300.105 C 1110.378 300.105 1124.083 285.414 1124.083 256.031 L 1124.083 238.283 C 1124.083 208.9 1110.378 194.209 1082.967 194.209 L 1061.374 194.209 L 1061.374 300.105 Z" style="fill: rgb(246, 246, 246); stroke: rgb(0, 0, 0); stroke-linecap: round; stroke-miterlimit: 50; stroke-opacity: 0.03; stroke-width: 8px; vector-effect: non-scaling-stroke;"/>
    <path d="M 1558.011 141.852 C 1584.041 141.852 1605.437 147.127 1622.199 157.677 C 1638.961 168.228 1647.54 183.856 1647.934 204.562 L 1647.934 208.111 L 1586.703 208.111 L 1586.703 206.928 C 1586.703 201.012 1584.534 196.082 1580.196 192.138 C 1575.858 188.194 1569.251 186.222 1560.377 186.222 C 1551.701 186.222 1545.045 187.504 1540.411 190.067 C 1535.777 192.631 1533.459 195.786 1533.459 199.533 C 1533.459 204.858 1536.615 208.802 1542.925 211.365 C 1549.236 213.928 1559.392 216.591 1573.392 219.352 C 1589.76 222.704 1603.219 226.204 1613.769 229.852 C 1624.319 233.501 1633.538 239.466 1641.426 247.748 C 1649.314 256.031 1653.357 267.271 1653.554 281.47 C 1653.554 305.528 1645.42 323.374 1629.151 335.009 C 1612.882 346.644 1591.141 352.462 1563.927 352.462 C 1532.178 352.462 1507.479 347.137 1489.829 336.488 C 1472.18 325.839 1463.355 307.007 1463.355 279.991 L 1525.177 279.991 C 1525.177 290.245 1527.84 297.098 1533.164 300.549 C 1538.488 304 1546.771 305.725 1558.011 305.725 C 1566.293 305.725 1573.146 304.838 1578.569 303.063 C 1583.992 301.288 1586.703 297.64 1586.703 292.118 C 1586.703 287.188 1583.696 283.491 1577.682 281.026 C 1571.668 278.561 1561.857 275.948 1548.249 273.187 C 1531.685 269.638 1517.979 265.94 1507.133 262.095 C 1496.287 258.25 1486.822 251.89 1478.736 243.016 C 1470.652 234.142 1466.609 222.113 1466.609 206.928 C 1466.609 184.645 1475.237 168.228 1492.491 157.677 C 1509.747 147.127 1531.587 141.852 1558.011 141.852 Z" style="fill: rgb(246, 246, 246); stroke: rgb(0, 0, 0); stroke-linecap: round; stroke-miterlimit: 50; stroke-opacity: 0.03; stroke-width: 8px; vector-effect: non-scaling-stroke;"/>
  </g>
</svg>